# xmcd
#
# Track frame offsets: 
#        150
#        15398
#        31473
#        49460
#        65072
#        78672
#        99069
#        121785
#        143692
#        168215
#        187765
#        205934
#        221991
#        237162
#        252945
#
# Disc length: 3573 seconds
#
# Revision: 0
# Processed by: cddbd v1.5.2PL0 Copyright (c) Steve Scherf et al.
# Submitted via: ExactAudioCopy v1.3
#
DISCID=c90df30f
DTITLE=Kenny Chesney - Greatest Hits II
DYEAR=2009
DGENRE=Country
TTITLE0=Out Last Night
TTITLE1=Living In Fast Forward
TTITLE2=Young
TTITLE3=Summertime
TTITLE4=Down The Road Featuring Mac McAnally
TTITLE5=Beer in Mexico
TTITLE6=There Goes My Life
TTITLE7=When The Sun Goes Down Featuring Uncle Kracker
TTITLE8=Anything But Mine
TTITLE9=Be As You Are
TTITLE10=I Go Back
TTITLE11=No Shoes, No Shirt, No Problems
TTITLE12=The Good Stuff
TTITLE13=Never Wanted Nothing More
TTITLE14=I'm Alive Featuring Dave Matthews 
EXTD=
EXTT0=
EXTT1=
EXTT2=
EXTT3=
EXTT4=
EXTT5=
EXTT6=
EXTT7=
EXTT8=
EXTT9=
EXTT10=
EXTT11=
EXTT12=
EXTT13=
EXTT14=
PLAYORDER=
